<svg xmlns="http://www.w3.org/2000/svg" viewBox="0 0 403.33 119.08"><defs><style>.cls-1{fill:#e78108;}.cls-2{fill:#fff;}.cls-3{fill:#72706f;}</style></defs><g id="Calque_2" data-name="Calque 2"><g id="Calque_1-2" data-name="Calque 1"><path class="cls-1" d="M345.41,8.59s-6.25,0-6.25,6.24V66.51s0,6.25,6.25,6.25h51.68s6.24,0,6.24-6.25V14.83s0-6.24-6.24-6.24Z"/><path class="cls-1" d="M401.39,110.45a1.9,1.9,0,1,0,1.9,1.9,1.9,1.9,0,0,0-1.9-1.9M398.05,104h-3.67v-3.17H394l-4.22,4.72v.61h1.45v4.32c0,2.82,1.81,3.78,3.9,3.78a7.11,7.11,0,0,0,2.93-.63v-2.3a4.35,4.35,0,0,1-2.12.59,1.46,1.46,0,0,1-1.55-1.61v-4.15h3.67Zm-16.86,0H378v10.06h3.17v-6.48c.83-1.25,1.42-1.66,2.21-1.66s1.57.59,1.57,2v6.13h3.17v-6.39a3.53,3.53,0,0,0-3.67-3.87,4.06,4.06,0,0,0-3.28,1.64Zm-12.45,3.88a2.14,2.14,0,0,1,2.19-2.2,2.16,2.16,0,0,1,2.18,2.2Zm7,3.06a5.9,5.9,0,0,1-3.73,1.44c-2,0-3.21-1.05-3.32-2.84h7.23c.15-3.67-2.28-5.74-5.2-5.74a5.08,5.08,0,0,0-5.31,5.26c0,3.15,2.29,5.2,5.83,5.2a7.29,7.29,0,0,0,4.5-1.33ZM348.15,104H345v10.06h3.17v-6.74a3.26,3.26,0,0,1,2.42-1.4c.94,0,1.92.54,1.92,2.18v6h3.17v-6.44a3.1,3.1,0,0,1,2.49-1.7c1.16,0,1.86.81,1.86,2.25v5.89h3.16v-6.46a3.68,3.68,0,0,0-3.93-3.8c-1.5,0-2.66.63-4,2.14a3.67,3.67,0,0,0-3.63-2.14,4.7,4.7,0,0,0-1.81.35,6.36,6.36,0,0,0-1.68,1.13Zm-12.52,3.88a2.14,2.14,0,0,1,2.19-2.2,2.16,2.16,0,0,1,2.18,2.2Zm7,3.06a5.9,5.9,0,0,1-3.73,1.44c-2,0-3.21-1.05-3.32-2.84h7.23c.15-3.67-2.27-5.74-5.2-5.74a5.08,5.08,0,0,0-5.31,5.26c0,3.15,2.3,5.2,5.83,5.2a7.29,7.29,0,0,0,4.5-1.33ZM330,99.16h-3.16v14.89H330Zm-12.93,7.69a3,3,0,0,1,2-.81c1.51,0,2.38,1.11,2.38,3s-1,3.06-2.51,3.06a3,3,0,0,1-1.84-.65Zm0-2.86H314v15.09h3.16v-5.53a5.33,5.33,0,0,0,2.6.7c3,0,5-2.12,5-5.35a4.84,4.84,0,0,0-4.67-5.11,4.29,4.29,0,0,0-2.89,1.07Zm-20.85,0h-3.17v10.06h3.17v-6.74a3.26,3.26,0,0,1,2.42-1.4c.94,0,1.92.54,1.92,2.18v6h3.17v-6.44a3.1,3.1,0,0,1,2.49-1.7c1.16,0,1.86.81,1.86,2.25v5.89h3.16v-6.46a3.68,3.68,0,0,0-3.93-3.8c-1.51,0-2.66.63-4,2.14a3.67,3.67,0,0,0-3.63-2.14,4.7,4.7,0,0,0-1.81.35,6.36,6.36,0,0,0-1.68,1.13Zm-7.58-5a1.75,1.75,0,1,0,1.75,1.75A1.76,1.76,0,0,0,288.68,99m1.59,5h-3.16v10.06h3.16Zm-5.7.54a6.76,6.76,0,0,0-3.25-.74c-2.49,0-4.17,1.24-4.17,3.1,0,3.3,5,3,5,4.5,0,.46-.59.74-1.53.74a8.07,8.07,0,0,1-3.25-.85v2.23a9.09,9.09,0,0,0,3.6.74c2.62,0,4.1-1.18,4.1-3.28,0-3.36-5-3.4-5-4.52,0-.69.72-.78,1.14-.78a7.07,7.07,0,0,1,3.36,1.11ZM269.81,104h-3.67v-3.17h-.39l-4.22,4.72v.61H263v4.32c0,2.82,1.82,3.78,3.91,3.78a7.11,7.11,0,0,0,2.93-.63v-2.3a4.35,4.35,0,0,1-2.12.59,1.46,1.46,0,0,1-1.55-1.61v-4.15h3.67Zm-13.08,10.06h3.16V104h-3.18v6.42a2.42,2.42,0,0,1-2.17,1.72c-.83,0-1.59-.5-1.59-1.92V104h-3.17v6.44a3.51,3.51,0,0,0,3.69,3.82,4.05,4.05,0,0,0,3.26-1.64Zm-12.52-5.11c0,2.21-.78,3.43-2.27,3.43-1.2,0-2.31-.76-2.31-3.36,0-2.27.94-3.34,2.31-3.34,1.6,0,2.27,1.31,2.27,3.27m3.39.09c0-3.86-3.19-5.24-5.66-5.24-3,0-5.7,1.79-5.7,5.22,0,3.17,2.4,5.24,5.7,5.24,2.23,0,5.66-1.22,5.66-5.22M235,104h-3.67v-3.17H231l-4.22,4.72v.61h1.44v4.32c0,2.82,1.82,3.78,3.91,3.78a7.11,7.11,0,0,0,2.93-.63v-2.3a4.35,4.35,0,0,1-2.12.59,1.46,1.46,0,0,1-1.55-1.61v-4.15H235Zm-17.39,13.76a4.39,4.39,0,0,0,3.85-4.33,2.25,2.25,0,0,0-2.19-2.49,1.71,1.71,0,0,0-1.79,1.73,1.55,1.55,0,0,0,1.12,1.59,3.52,3.52,0,0,1-1,2.82ZM212,111.3a2.66,2.66,0,0,1-1.88.83c-1.48,0-2.42-1.22-2.42-3.06,0-2,.94-3.16,2.53-3.16a3.4,3.4,0,0,1,1.77.59Zm3.17-12.14H212v5.26a5.91,5.91,0,0,0-2.62-.63c-2.88,0-4.89,2.14-4.89,5.22s2,5.24,4.71,5.24a4.14,4.14,0,0,0,2.8-1v.8h3.17Zm-16,14.89h3.17V104H199.2v6.42a2.41,2.41,0,0,1-2.16,1.72c-.83,0-1.6-.5-1.6-1.92V104h-3.17v6.44a3.51,3.51,0,0,0,3.7,3.82,4,4,0,0,0,3.25-1.64Zm-12.51-5.11c0,2.21-.79,3.43-2.28,3.43-1.2,0-2.31-.76-2.31-3.36,0-2.27.94-3.34,2.31-3.34,1.6,0,2.28,1.31,2.28,3.27m3.38.09c0-3.86-3.19-5.24-5.66-5.24-3,0-5.7,1.79-5.7,5.22,0,3.17,2.41,5.24,5.7,5.24,2.23,0,5.66-1.22,5.66-5.22m-13.61-9.87h-3.16v14.89h3.16Zm-5.89,10.35c-2.14,1-3.45,1.64-5.4,1.64-3.1,0-5.3-1.9-5.3-4.56s2.22-4.53,5.39-4.53a10.42,10.42,0,0,1,5.13,1.53v-3.32A10.52,10.52,0,0,0,165,99c-5.7,0-9,3.72-9,7.69s2.89,7.6,8.67,7.6a11.59,11.59,0,0,0,5.86-1.48Zm-30-5.52h-3.17v10.06h3.17v-6.48c.83-1.25,1.42-1.66,2.21-1.66s1.57.59,1.57,2v6.13h3.17v-6.39a3.53,3.53,0,0,0-3.67-3.87,4,4,0,0,0-3.28,1.64Zm-8.74,5c0,2.21-.78,3.43-2.27,3.43-1.2,0-2.31-.76-2.31-3.36,0-2.27.94-3.34,2.31-3.34,1.6,0,2.27,1.31,2.27,3.27m3.39.09c0-3.86-3.19-5.24-5.66-5.24-3,0-5.7,1.79-5.7,5.22,0,3.17,2.4,5.24,5.7,5.24,2.23,0,5.66-1.22,5.66-5.22M120,99a1.75,1.75,0,1,0,1.75,1.75A1.76,1.76,0,0,0,120,99m1.59,5h-3.16v10.06h3.16Zm-4.93,0H113v-3.17h-.39l-4.22,4.72v.61h1.44v4.32c0,2.82,1.81,3.78,3.91,3.78a7.18,7.18,0,0,0,2.93-.63v-2.3a4.38,4.38,0,0,1-2.12.59A1.46,1.46,0,0,1,113,110.3v-4.15h3.67Zm-13.08,10.06h3.16V104h-3.19v6.42a2.4,2.4,0,0,1-2.16,1.72c-.83,0-1.59-.5-1.59-1.92V104H96.66v6.44a3.5,3.5,0,0,0,3.69,3.82,4.05,4.05,0,0,0,3.26-1.64Zm-9.7-14.89H90.74v14.89h3.17Zm-8.8,9.78c0,2.21-.79,3.43-2.27,3.43-1.21,0-2.32-.76-2.32-3.36,0-2.27.94-3.34,2.32-3.34,1.59,0,2.27,1.31,2.27,3.27m3.38.09c0-3.86-3.19-5.24-5.65-5.24-3,0-5.7,1.79-5.7,5.22,0,3.17,2.4,5.24,5.7,5.24,2.22,0,5.65-1.22,5.65-5.22m-13.32-4.5a6.79,6.79,0,0,0-3.25-.74c-2.49,0-4.18,1.24-4.18,3.1,0,3.3,5,3,5,4.5,0,.46-.59.74-1.53.74a8.16,8.16,0,0,1-3.26-.85v2.23a9.2,9.2,0,0,0,3.61.74c2.62,0,4.1-1.18,4.1-3.28,0-3.36-5-3.4-5-4.52,0-.69.72-.78,1.14-.78a7.1,7.1,0,0,1,3.36,1.11Zm-22.34,3.34a2.14,2.14,0,0,1,2.18-2.2,2.16,2.16,0,0,1,2.19,2.2Zm7,3.06a5.93,5.93,0,0,1-3.74,1.44c-2,0-3.21-1.05-3.32-2.84H60c.15-3.67-2.27-5.74-5.2-5.74a5.07,5.07,0,0,0-5.3,5.26c0,3.15,2.29,5.2,5.83,5.2a7.33,7.33,0,0,0,4.5-1.33Zm-16-6.94H40.66v10.06h3.17v-4.34c.69-1.86,1.44-2.95,2.59-2.95a3.66,3.66,0,0,1,1.88.74l.88-2.79a3.45,3.45,0,0,0-2.1-.92c-1.22,0-2.27,1-3.21,3.08h0Zm-5,0H35.2v-3.17h-.39l-4.22,4.72v.61H32v4.32c0,2.82,1.81,3.78,3.91,3.78a7.18,7.18,0,0,0,2.93-.63v-2.3a4.38,4.38,0,0,1-2.12.59,1.46,1.46,0,0,1-1.55-1.61v-4.15h3.67Zm-12.8,5c0,2.21-.79,3.43-2.27,3.43-1.2,0-2.32-.76-2.32-3.36,0-2.27.94-3.34,2.32-3.34,1.59,0,2.27,1.31,2.27,3.27m3.38.09c0-3.86-3.18-5.24-5.65-5.24-3,0-5.7,1.79-5.7,5.22,0,3.17,2.4,5.24,5.7,5.24,2.23,0,5.65-1.22,5.65-5.22m-10-9.87h-4l-3.74,8.5-3.93-8.5h-4l7.21,15.09h1.62Z"/><path class="cls-2" d="M379.37,37.62a2.21,2.21,0,1,1-2.2-2.2,2.21,2.21,0,0,1,2.2,2.2m-1.93,6.6c0,.08,0,.15,0,.23,0,2.41-3.06,4.37-6.83,4.37s-6.82-2-6.82-4.37a1.79,1.79,0,0,1,0-.23,14.11,14.11,0,0,0,13.61,0m-10.6-6.6a2.21,2.21,0,1,1-2.2-2.2,2.2,2.2,0,0,1,2.2,2.2m28.67,8.83c.38-6.85-6-8.94-6-8.94a10.39,10.39,0,0,0-2.66-6.65c-4.94-4.75-11.12-1.43-11.12-1.43s-4.28-8.84-14.07-5.8-7.32,13.22-7.32,13.22-7.6,1.33-7.6,9.5,8.46,8,8.46,8h31.65c2.76,0,8.27-1.05,8.65-7.89"/><path class="cls-3" d="M316.33,20a6.32,6.32,0,1,1,6.31,6.44A6.44,6.44,0,0,1,316.33,20M315,20a7.62,7.62,0,1,0,7.62-7.62A7.62,7.62,0,0,0,315,20m10.21,1.51a2.31,2.31,0,0,1-2.49,2c-1.71,0-2.91-1.79-2.91-3.6s1.1-3.57,3-3.57a2.26,2.26,0,0,1,2.38,2h1.41a3.63,3.63,0,0,0-3.81-3.18c-2.73,0-4.42,2-4.42,4.77s1.79,4.76,4.33,4.76a3.66,3.66,0,0,0,3.9-3.23Z"/><path class="cls-3" d="M278.21,40.35A12.75,12.75,0,0,1,291,30.55c8,0,11.27,7.15,11.27,9.8Zm36.62,9.2c0-17.72-7.25-28.79-23.8-28.79-16.06,0-25.36,11.16-25.36,26S275,72.66,291,72.66c13.52,0,20.67-6.46,24.39-12.14l-10.09-5.88c-1.17,1.67-4.89,7-14.3,7a12.58,12.58,0,0,1-12.82-12.14ZM234.34,71.49h11.94v-24c0-10.77,7.35-14.59,15.48-14.59V20.76c-7,0-12.44,2.35-15.28,8h-.2V21.94H234.34ZM211.23,53.76c0,6.37-7.15,9.11-12.73,9.11-4.31,0-7.74-2.45-7.74-6.17,0-4.7,3.72-6,8.23-6.85l6.56-1.38a21.7,21.7,0,0,0,5.68-1.76ZM223.17,37c0-14.11-10.67-16.26-21.34-16.26-10.87,0-21.16,4.51-21.16,16.16l12,.49c0-5.39,2.25-7.44,9.21-7.44,5.19,0,9.4,1.37,9.4,6.26V37.7c-3,1.08-8.62,2.06-12.93,2.94l-5,1c-7.35,1.47-15.09,5.78-15.09,15.47s7.45,15.57,16.85,15.57A25,25,0,0,0,211.23,67a9.42,9.42,0,0,0,1.17,4.51H225c-.68-1.08-1.86-3.23-1.86-8.33ZM170,21.94H158.05V48.57c0,6-2.74,12.54-11.75,12.54-6.07,0-8.81-2.94-8.81-9.8V21.94h-12v32.8c0,14.4,9.7,17.92,18.12,17.92,6.75,0,11.55-2.64,14.2-6.07h.19v4.9H170ZM90.48,61.69c-9,0-11.65-7.83-11.75-15,.1-7.15,2.74-15,11.75-15s11.66,7.83,11.76,15c-.1,7.15-2.75,15-11.76,15m23.31-39.75h-12v4.21h-.19c-4.12-3.53-7.25-5.39-14.1-5.39-12.54,0-21.35,11.65-21.35,26S75,72.66,87.94,72.66c7.15,0,11-2.45,13.71-6h.19V87.35h12ZM0,58.56c6.66,9.7,18.61,14.69,30.16,14.69,14.49,0,30.55-5.88,30.55-22.92,0-13.22-9.79-17.43-20.17-19.68L32,28.79C24.19,27,17.63,25.66,17.63,19.88c0-4.9,5.68-7.74,13.22-7.74,8.52,0,15,3.72,18.31,10.09L60,14C52.78,4.41,42.89,0,30.94,0c-13,0-27,7.05-27,21.74,0,12.83,9.79,16.94,21,19.49L32.61,43C41.91,45.14,47,46.71,47,52.2c0,6.75-8.42,8.91-14.78,8.91-8.52,0-16.16-3.33-21.06-10.58Z"/></g></g></svg>