<!-- Created with Inkscape (http://www.inkscape.org/) --><svg xmlns:inkscape="http://www.inkscape.org/namespaces/inkscape" xmlns:sodipodi="http://sodipodi.sourceforge.net/DTD/sodipodi-0.dtd" xmlns="http://www.w3.org/2000/svg" xmlns:svg="http://www.w3.org/2000/svg" width="297mm" height="210mm" viewBox="0 0 297 210" version="1.1" id="svg5" xml:space="preserve" inkscape:version="1.2 (dc2aedaf03, 2022-05-15)" sodipodi:docname="RFIDNC-Logo.svg"><defs id="defs2"/><g inkscape:label="Calque 1" inkscape:groupmode="layer" id="layer1"><g id="g5687" transform="matrix(1.9531746,0,0,1.9531746,-32.895288,-57.633072)"><path id="path3973" style="color:#000000;font-weight:bold;font-size:32.2265px;font-family:Corbel;-inkscape-font-specification:'Corbel, Bold';fill:#2881bd;stroke:none;stroke-width:2.286" d="m 106.11845,100.22246 -0.004,0.002 c -1.89663,0.011 -3.64097,0.32241 -5.20587,0.95344 h -0.002 -0.002 c -1.533782,0.6232 -2.851526,1.49809 -3.9093,2.61483 l -0.002,0.002 -0.001,0.002 c -1.034414,1.10463 -1.828908,2.41341 -2.376585,3.89072 l -0.002,0.004 v 0.002 c -0.537367,1.48102 -0.802007,3.07706 -0.802007,4.7687 0,1.64583 0.24667,3.18473 0.752397,4.5961 l 0.002,0.004 0.002,0.006 c 0.520127,1.40711 1.302671,2.64779 2.336795,3.6835 l 0.006,0.006 0.004,0.004 c 1.053794,1.03155 2.359118,1.82706 3.86951,2.38228 h 0.002 l 0.004,0.002 c 1.53195,0.55166 3.26561,0.81494 5.18779,0.81494 0.97637,0 1.92561,-0.0653 2.84478,-0.19638 l 0.014,-0.002 c 0.90715,-0.11983 1.76127,-0.28935 2.56315,-0.51108 l 0.84387,-0.23461 v -5.67407 l -1.53065,0.49403 c -0.66711,0.21519 -1.39092,0.38046 -2.17403,0.49557 -0.78776,0.1158 -1.55601,0.17312 -2.30528,0.17312 -1.01764,0 -1.8922,-0.13814 -2.64067,-0.39584 -0.73385,-0.26654 -1.325,-0.63974 -1.81849,-1.13378 -0.4899,-0.49047 -0.87654,-1.10563 -1.15961,-1.89033 -0.27966,-0.78571 -0.43253,-1.73429 -0.43253,-2.85357 0,-1.12098 0.16622,-2.0763 0.47232,-2.87786 v -0.002 c 0.31536,-0.8348 0.73595,-1.49724 1.25314,-2.02364 0.53384,-0.53219 1.15462,-0.93152 1.90169,-1.21595 0.76264,-0.28629 1.59947,-0.43408 2.53732,-0.43408 0.64512,0 1.30785,0.0462 1.99161,0.14211 0.66286,0.093 1.39906,0.26006 2.20348,0.50333 l 1.50895,0.45526 v -5.55108 l -0.78393,-0.26096 c -0.73003,-0.24323 -1.52874,-0.42171 -2.39675,-0.54364 -0.87408,-0.13314 -1.78931,-0.2 -2.74764,-0.2 z m -29.306122,0.38758 -5.874579,5.2e-4 v 22.96035 h 6.241999 v -10.50426 c 0,-0.48378 -0.0508,-1.40821 -0.0656,-2.01952 0.5548,0.8251 1.13021,1.79216 1.67173,2.52129 l 7.316345,10.00249 h 5.874547 v -22.96035 h -6.241967 v 10.50427 c 0,0.42947 0.0508,1.42117 0.0656,2.01331 -0.552437,-0.81836 -0.947354,-1.51148 -1.600415,-2.41122 l -0.002,-0.002 v -0.002 z"/><path id="path3975" style="fill:#277fbe;fill-opacity:1;stroke:none;stroke-width:0.200296" d="M 120.04457 40.087009 C 119.87443 40.083041 119.70612 40.083247 119.53975 40.087802 C 118.92548 40.104622 118.33904 40.181923 117.79963 40.337827 C 114.70428 41.232445 113.89893 45.807496 116.60613 47.627442 C 118.10254 48.63343 120.28941 48.529334 122.00614 48.907993 C 125.00556 49.569542 127.91517 50.644934 130.61916 52.102491 C 143.12962 58.845988 150.6216 73.370066 147.99232 87.480088 C 145.95131 98.433256 138.78566 107.79833 128.61605 112.4548 C 126.2778 113.52558 123.73479 114.35121 121.20526 114.82831 C 119.69463 115.11333 117.9401 115.05107 116.60613 115.92075 C 113.44265 117.9832 114.89403 123.14306 118.6013 123.32493 C 123.71205 123.5757 128.91609 121.56093 133.42315 119.3785 C 155.97944 108.45718 163.17345 79.616221 149.98379 58.837553 C 144.82037 50.703339 136.70164 44.814711 127.61463 41.812577 C 125.53206 41.124526 122.59662 40.146527 120.04457 40.087009 z M 119.22332 54.437644 C 118.87 54.432544 118.52709 54.46195 118.20073 54.53686 C 115.07431 55.254559 113.70571 59.780974 116.43495 61.82039 C 117.58464 62.679458 119.26557 62.802092 120.60415 63.244341 C 122.85787 63.98884 124.95589 65.009117 126.81323 66.511333 C 136.0084 73.948709 136.57558 87.292962 128.39751 95.684345 C 126.51053 97.620611 123.95946 99.204038 121.40528 100.08293 C 119.67053 100.68002 117.1546 100.85707 115.90315 102.32284 C 113.78382 104.80528 115.45759 109.0191 118.80132 109.10102 C 122.59293 109.19392 126.95252 107.00638 130.01805 104.97257 C 142.99921 96.360262 146.27011 78.622494 137.49736 65.84804 C 134.21893 61.074199 129.32203 57.364264 123.8087 55.566857 C 122.47293 55.131375 120.75437 54.459761 119.22332 54.437644 z M 116.27964 67.41936 C 115.98375 67.41746 115.66519 67.451947 115.32452 67.539743 C 113.97799 67.886784 113.21054 69.005224 112.94386 70.133387 C 112.67718 71.26155 112.90458 72.669102 113.99291 73.582143 C 114.97572 74.406653 115.92289 74.414751 116.18042 74.510278 C 116.98676 74.80933 117.67494 75.191611 118.28354 75.744263 C 121.48199 78.64873 121.695 84.008012 118.8209 87.318961 C 118.20732 88.025831 117.30995 88.649089 116.49659 88.963305 C 116.13681 89.102332 114.61693 89.09119 113.53757 90.510549 C 112.72857 91.574438 112.67208 92.8849 113.07244 93.96539 C 113.4728 95.045879 114.50759 96.082774 115.91267 96.121425 C 118.18228 96.183815 120.13183 94.93986 121.54736 93.885488 C 127.67352 89.322349 129.13814 80.19083 125.05882 73.52182 C 123.52071 71.007265 121.23061 69.041828 118.56664 68.066779 C 118.10489 67.897764 117.33641 67.426288 116.27964 67.41936 z "/><path id="path4776" style="color:#000000;font-weight:bold;font-size:46.9033px;font-family:Corbel;-inkscape-font-specification:'Corbel, Bold';fill:#646464;stroke:none;stroke-width:1.86845" d="m 41.784005,67.16845 v 4.52e-4 l -10.349823,4.5e-4 V 95.577869 H 39.06543 V 85.253401 h 2.334788 L 49.7618,95.577869 h 9.235185 L 49.38784,84.053415 c 1.988044,-0.654019 3.671121,-1.5057 4.779228,-2.716303 1.339201,-1.460192 2.009449,-3.264711 2.009449,-5.286605 0,-1.917656 -0.538156,-3.594115 -1.658766,-4.932873 -1.103717,-1.331993 -2.680449,-2.327156 -4.636471,-2.974504 l -0.0036,-0.0018 -0.0041,-0.0027 c -1.041059,-0.33515 -2.250776,-0.571694 -3.635111,-0.724137 -6.07e-4,-7.8e-5 -0.0014,7e-5 -0.0021,0 -1.38362,-0.165538 -2.866855,-0.246035 -4.452337,-0.246035 z m 65.800785,0 -5.2e-4,4.52e-4 -9.131239,4.5e-4 v 28.408517 h 1.002913 7.302306 c 1.15544,0 2.2492,-0.03392 3.28598,-0.09958 -0.28257,-0.362374 -0.50883,-0.74108 -0.66723,-1.116174 -0.61145,-1.447838 -0.61122,-3.161133 0.42414,-4.694046 -0.7444,0.05458 -1.54356,0.0829 -2.39842,0.0829 h -1.31791 L 106.0843,72.99443 h 1.47877 c 0.92574,0 1.77944,0.03339 2.56237,0.09823 -1.15484,-1.371475 -1.33808,-3.077876 -0.97137,-4.438999 0.12916,-0.479395 0.33085,-0.964562 0.6093,-1.427096 -0.73278,-0.03862 -1.45929,-0.05813 -2.17858,-0.05813 z m -46.61508,8.73e-4 v 28.408519 h 7.6328 V 94.707709 83.97678 H 80.521098 V 78.149889 H 68.60251 v -5.155478 h 13.939933 v -5.825088 z m 24.504924,0 v 28.408519 h 1.002913 6.630404 V 67.169352 Z M 39.06543,72.994411 h 3.016501 c 1.160011,0 2.120061,0.05267 2.859779,0.149604 l 0.0098,0.0018 0.0078,0.0018 c 0.741586,0.08502 1.323196,0.222228 1.735315,0.385725 l 0.0057,0.0036 0.0041,0.0013 c 0.674607,0.260203 1.048354,0.563676 1.26515,0.922858 l 0.0062,0.01172 0.0078,0.01037 c 0.260251,0.402607 0.399304,0.874578 0.399304,1.468552 0,0.703592 -0.176902,1.278077 -0.52499,1.788487 l -0.0016,0.0036 -0.0021,0.0018 c -0.277742,0.413185 -0.836717,0.812488 -1.831521,1.139154 -0.515408,0.167578 -1.204634,0.309616 -2.054448,0.409607 -0.828945,0.08615 -1.874106,0.132481 -3.126152,0.132481 h -1.776695 z"/></g></g></svg>